<?xml version="1.0" standalone="no"?>
<!DOCTYPE svg PUBLIC "-//W3C//DTD SVG 20010904//EN"
 "http://www.w3.org/TR/2001/REC-SVG-20010904/DTD/svg10.dtd">
<svg version="1.0" xmlns="http://www.w3.org/2000/svg"
 width="300.000000pt" height="300.000000pt" viewBox="0 0 300.000000 300.000000"
 preserveAspectRatio="xMidYMid meet">
<metadata>
Created by potrace 1.11, written by Peter Selinger 2001-2013
</metadata>
<g transform="translate(0.000000,300.000000) scale(0.100000,-0.100000)"
fill="#000000" stroke="none">
<path d="M580 2740 c-71 -12 -185 -55 -240 -90 -98 -63 -197 -206 -215 -310
-18 -102 -21 -133 -19 -215 3 -115 25 -208 70 -298 76 -151 164 -251 389 -438
239 -199 350 -334 371 -449 31 -171 -43 -283 -196 -297 -135 -13 -221 65 -264
239 -9 36 -16 70 -15 75 1 4 1 16 0 27 -1 19 -16 19 -121 2 -14 -3 -79 -12
-145 -22 -66 -9 -123 -21 -126 -26 -14 -21 17 -182 52 -270 63 -160 188 -293
328 -348 81 -31 138 -41 246 -42 318 -2 549 158 622 432 27 100 23 304 -7 390
-68 195 -174 332 -415 535 -329 278 -405 385 -392 551 9 125 74 194 186 200
111 5 189 -62 222 -193 15 -61 19 -68 40 -67 33 2 171 16 189 19 8 2 50 6 92
10 51 5 79 12 82 22 6 15 -15 115 -38 179 -73 207 -212 341 -393 379 -72 15
-227 18 -303 5z"/>
<path d="M2035 2735 c-132 -28 -236 -85 -312 -169 -49 -54 -108 -167 -119
-226 -25 -141 -25 -266 0 -374 9 -37 32 -100 52 -139 76 -151 168 -255 390
-439 287 -238 378 -366 375 -530 -1 -95 -36 -154 -115 -195 -41 -21 -135 -28
-180 -13 -85 28 -150 120 -173 245 -3 17 -7 37 -8 45 -2 8 -4 26 -4 39 -1 25
-6 25 -121 7 -23 -4 -97 -15 -145 -21 -11 -2 -42 -6 -70 -10 -27 -4 -53 -9
-56 -11 -10 -6 1 -97 21 -175 46 -179 131 -309 259 -393 109 -71 203 -99 340
-99 323 0 544 150 626 423 23 77 28 246 9 340 -37 188 -186 398 -414 584 -116
94 -139 114 -230 206 -140 139 -180 214 -180 333 0 67 30 147 68 180 30 27 91
46 142 43 99 -4 170 -72 201 -193 13 -50 21 -68 33 -67 9 1 56 5 104 9 48 4
89 8 92 10 3 2 41 6 85 10 44 4 83 9 87 11 17 10 -25 176 -67 269 -69 149
-197 258 -353 300 -66 17 -257 17 -337 0z"/>
</g>
</svg>
